<svg width="914.1899902343749px" height="121.28000183105469px" xmlns="http://www.w3.org/2000/svg" viewBox="-207.09499511718747 14.359999084472655 914.1899902343749 121.28000183105469" style="background: rgba(0, 0, 0, 0);" preserveAspectRatio="xMidYMid"><defs><filter id="editing-extrusion" x="-100%" y="-100%" width="300%" height="300%"><feFlood result="color1" flood-color="#444444"></feFlood><feConvolveMatrix order="8,8" divisor="1" kernelMatrix="1 0 0 0 0 0 0 0 0 1 0 0 0 0 0 0 0 0 1 0 0 0 0 0 0 0 0 1 0 0 0 0 0 0 0 0 1 0 0 0 0 0 0 0 0 1 0 0 0 0 0 0 0 0 1 0 0 0 0 0 0 0 0 1" in="SourceAlpha" result="extrude"></feConvolveMatrix><feComposite in="color1" in2="extrude" result="comp-extrude" operator="in"></feComposite><feOffset dx="4" dy="4" in="comp-extrude" result="offset-extrude"></feOffset><feMerge><feMergeNode in="offset-extrude"></feMergeNode><feMergeNode in="SourceGraphic"></feMergeNode></feMerge></filter></defs><g filter="url(#editing-extrusion)"><g transform="translate(-79.42598235607147, 97.46500015258789)"><path d="M26.05-29.57L26.05-29.57L26.05-29.57Q27.01-31.49 27.01-33.28L27.01-33.28L27.01-33.28Q27.01-35.07 26.82-36.06L26.82-36.06L26.82-36.06Q26.62-37.06 26.18-37.82L26.18-37.82L26.18-37.82Q25.22-39.49 23.30-39.49L23.30-39.49L23.30-39.49Q20.93-39.49 19.01-37.76L19.01-37.76L19.01-37.76Q16.96-35.97 16.96-33.15L16.96-33.15L16.96-33.15Q16.96-31.36 18.21-29.98L18.21-29.98L18.21-29.98Q19.46-28.61 21.38-27.33L21.38-27.33L21.38-27.33Q23.30-26.05 25.47-24.77L25.47-24.77L25.47-24.77Q27.65-23.49 29.57-21.95L29.57-21.95L29.57-21.95Q33.98-18.43 33.98-13.70L33.98-13.70L33.98-13.70Q33.98-10.50 32.29-7.78L32.29-7.78L32.29-7.78Q30.59-5.06 27.78-3.07L27.78-3.07L27.78-3.07Q21.63 1.28 13.50 1.28L13.50 1.28L13.50 1.28Q6.91 1.28 3.52-0.86L3.52-0.86L3.52-0.86Q0.13-3.01 0.13-6.27L0.13-6.27L0.13-6.27Q0.13-12.10 4.67-13.57L4.67-13.57L4.67-13.57Q5.95-14.02 7.90-14.02L7.90-14.02L7.90-14.02Q9.86-14.02 12.10-13.18L12.10-13.18L12.10-13.18Q11.07-10.56 11.07-8.19L11.07-8.19L11.07-8.19Q11.07-3.07 14.72-3.07L14.72-3.07L14.72-3.07Q17.09-3.07 19.04-4.80L19.04-4.80L19.04-4.80Q20.99-6.53 20.99-8.48L20.99-8.48L20.99-8.48Q20.99-10.43 19.74-11.84L19.74-11.84L19.74-11.84Q18.50-13.25 16.64-14.37L16.64-14.37L16.64-14.37Q14.78-15.49 12.64-16.58L12.64-16.58L12.64-16.58Q10.50-17.66 8.64-19.20L8.64-19.20L8.64-19.20Q4.29-22.72 4.29-28.35L4.29-28.35L4.29-28.35Q4.29-32 6.08-34.85L6.08-34.85L6.08-34.85Q7.87-37.70 10.75-39.62L10.75-39.62L10.75-39.62Q16.51-43.52 23.58-43.52L23.58-43.52L23.58-43.52Q30.66-43.52 34.08-41.41L34.08-41.41L34.08-41.41Q37.50-39.30 37.50-35.71L37.50-35.71L37.50-35.71Q37.50-32.58 35.07-30.59L35.07-30.59L35.07-30.59Q32.96-28.93 30.40-28.93L30.40-28.93L30.40-28.93Q27.84-28.93 26.05-29.57ZM39.81-15.62L39.81-15.62L39.81-15.62Q39.81-27.71 46.08-35.33L46.08-35.33L46.08-35.33Q52.74-43.58 64.32-43.58L64.32-43.58L64.32-43.58Q72.70-43.58 76.93-39.52L76.93-39.52L76.93-39.52Q81.15-35.46 81.15-26.88L81.15-26.88L81.15-26.88Q81.15-13.82 74.50-6.21L74.50-6.21L74.50-6.21Q67.90 1.28 56.83 1.28L56.83 1.28L56.83 1.28Q48.19 1.28 44-3.04L44-3.04L44-3.04Q39.81-7.36 39.81-15.62ZM56.64-28.86L56.64-28.86L56.64-28.86Q53.76-17.34 53.76-8.26L53.76-8.26L53.76-8.26Q53.76-6.08 54.50-4.67L54.50-4.67L54.50-4.67Q55.23-3.26 57.18-3.26L57.18-3.26L57.18-3.26Q59.14-3.26 60.35-4.19L60.35-4.19L60.35-4.19Q61.57-5.12 62.53-7.23L62.53-7.23L62.53-7.23Q64.06-10.69 65.50-18.02L65.50-18.02L65.50-18.02Q66.94-25.34 67.07-28.38L67.07-28.38L67.07-28.38Q67.20-31.42 67.20-33.73L67.20-33.73L67.20-33.73Q67.20-36.03 66.50-37.50L66.50-37.50L66.50-37.50Q65.79-38.98 63.90-38.98L63.90-38.98L63.90-38.98Q62.02-38.98 60.74-37.82L60.74-37.82L60.74-37.82Q58.37-35.65 56.64-28.86ZM117.70-13.25L117.70-13.25L117.70-13.25Q119.36-12.03 119.36-9.44L119.36-9.44L119.36-9.44Q119.36-6.85 118.24-5.02L118.24-5.02L118.24-5.02Q117.12-3.20 114.94-1.79L114.94-1.79L114.94-1.79Q110.27 1.22 102.11 1.22L102.11 1.22L102.11 1.22Q93.95 1.22 89.50-3.04L89.50-3.04L89.50-3.04Q85.06-7.30 85.06-14.85L85.06-14.85L85.06-14.85Q85.06-25.54 90.62-33.66L90.62-33.66L90.62-33.66Q94.85-39.68 102.40-42.24L102.40-42.24L102.40-42.24Q106.30-43.52 110.14-43.52L110.14-43.52L110.14-43.52Q113.98-43.52 116.35-43.01L116.35-43.01L116.35-43.01Q118.72-42.50 120.51-41.47L120.51-41.47L120.51-41.47Q124.42-39.23 124.42-35.65L124.42-35.65L124.42-35.65Q124.42-32.38 121.34-29.95L121.34-29.95L121.34-29.95Q118.53-27.78 116.22-27.78L116.22-27.78L116.22-27.78Q113.92-27.78 112.96-28.10L112.96-28.10L112.96-28.10Q113.22-30.40 113.22-31.90L113.22-31.90L113.22-31.90Q113.22-33.41 113.15-34.50L113.15-34.50L113.15-34.50Q113.09-35.58 112.77-36.61L112.77-36.61L112.77-36.61Q112.13-38.98 110.18-38.98L110.18-38.98L110.18-38.98Q108.22-38.98 106.27-37.15L106.27-37.15L106.27-37.15Q104.32-35.33 102.66-32.26L102.66-32.26L102.66-32.26Q98.88-25.28 98.88-17.02L98.88-17.02L98.88-17.02Q98.88-13.06 101.12-10.78L101.12-10.78L101.12-10.78Q103.36-8.51 108.16-8.51L108.16-8.51L108.16-8.51Q111.74-8.51 115.14-10.88L115.14-10.88L115.14-10.88Q116.61-11.90 117.70-13.25ZM137.92 0L123.97 0L132.10-42.24L146.18-42.24L137.92 0ZM175.68 1.28L175.68 1.28L175.68 1.28Q167.49 1.28 166.72-10.37L166.72-10.37L155.71-10.37L155.71-10.37Q154.43-7.42 153.54-4.86L153.54-4.86L151.87 0L142.91 0L163.07-42.24L176.83-42.24L179.52-11.14L179.52-11.14Q180.16-4.42 182.72-2.43L182.72-2.43L182.72-2.43Q180.86 1.28 175.68 1.28ZM161.22-23.17L157.70-15.04L166.53-15.04L165.76-31.49L165.76-33.22L161.22-23.17ZM213.18-9.86L213.18-9.86L213.18-9.86Q214.40-8.32 214.40-5.34L214.40-5.34L214.40-5.34Q214.40-2.37 212.13-0.54L212.13-0.54L212.13-0.54Q209.86 1.28 205.89 1.28L205.89 1.28L205.89 1.28Q203.58 1.28 200 0.77L200 0.77L200 0.77Q192.96-0.32 190.94-0.32L190.94-0.32L190.94-0.32Q188.93-0.32 188.10-0.22L188.10-0.22L188.10-0.22Q187.26-0.13 185.92 0L185.92 0L193.66-42.24L207.68-42.24L201.28-7.04L201.28-7.04Q202.11-6.91 202.88-6.91L202.88-6.91L204.48-6.91L204.48-6.91Q209.86-6.91 213.18-9.86ZM259.97 1.28L259.97 1.28L259.97 1.28Q251.78 1.28 251.01-10.37L251.01-10.37L240-10.37L240-10.37Q238.72-7.42 237.82-4.86L237.82-4.86L236.16 0L227.20 0L247.36-42.24L261.12-42.24L263.81-11.14L263.81-11.14Q264.45-4.42 267.01-2.43L267.01-2.43L267.01-2.43Q265.15 1.28 259.97 1.28ZM245.50-23.17L241.98-15.04L250.82-15.04L250.05-31.49L250.05-33.22L245.50-23.17ZM295.74-42.69L295.74-42.69L295.74-42.69Q311.42-42.69 311.42-31.62L311.42-31.62L311.42-31.62Q311.42-25.54 307.52-21.89L307.52-21.89L307.52-21.89Q303.68-18.24 296.96-18.24L296.96-18.24L296.96-18.24Q293.82-18.24 291.39-20.03L291.39-20.03L291.39-20.03Q290.24-20.80 289.47-21.82L289.47-21.82L289.47-21.82Q294.14-21.82 296.61-24.67L296.61-24.67L296.61-24.67Q299.07-27.52 299.07-33.09L299.07-33.09L299.07-33.09Q299.07-38.66 293.57-38.66L293.57-38.66L292.03-38.66L292.03-38.66Q291.65-38.66 291.33-38.59L291.33-38.59L283.97 0L270.08 0L277.95-41.92L277.95-41.92Q284.80-42.56 288.77-42.62L288.77-42.62L288.77-42.62Q292.74-42.69 295.74-42.69ZM336.77-42.69L336.77-42.69L336.77-42.69Q352.45-42.69 352.45-31.62L352.45-31.62L352.45-31.62Q352.45-25.54 348.54-21.89L348.54-21.89L348.54-21.89Q344.70-18.24 337.98-18.24L337.98-18.24L337.98-18.24Q334.85-18.24 332.42-20.03L332.42-20.03L332.42-20.03Q331.26-20.80 330.50-21.82L330.50-21.82L330.50-21.82Q335.17-21.82 337.63-24.67L337.63-24.67L337.63-24.67Q340.10-27.52 340.10-33.09L340.10-33.09L340.10-33.09Q340.10-38.66 334.59-38.66L334.59-38.66L333.06-38.66L333.06-38.66Q332.67-38.66 332.35-38.59L332.35-38.59L324.99 0L311.10 0L318.98-41.92L318.98-41.92Q325.82-42.56 329.79-42.62L329.79-42.62L329.79-42.62Q333.76-42.69 336.77-42.69ZM367.17-9.47L367.17-9.47L367.17-9.47Q367.17-11.97 367.81-15.17L367.81-15.17L372.99-42.24L387.14-42.24L382.02-14.98L382.02-14.98Q381.44-11.97 381.44-9.76L381.44-9.76L381.44-9.76Q381.44-7.55 382.37-6.40L382.37-6.40L382.37-6.40Q383.30-5.25 385.02-5.25L385.02-5.25L385.02-5.25Q386.75-5.25 387.84-5.70L387.84-5.70L387.84-5.70Q388.93-6.14 389.82-7.23L389.82-7.23L389.82-7.23Q391.55-9.41 392.64-14.98L392.64-14.98L397.82-42.24L407.49-42.24L402.37-15.04L402.37-15.04Q400.58-5.95 395.65-2.30L395.65-2.30L395.65-2.30Q390.85 1.28 381.38 1.28L381.38 1.28L381.38 1.28Q374.27 1.28 370.50-1.79L370.50-1.79L370.50-1.79Q367.17-4.48 367.17-9.47ZM435.52-9.86L435.52-9.86L435.52-9.86Q436.74-8.32 436.74-5.34L436.74-5.34L436.74-5.34Q436.74-2.37 434.46-0.54L434.46-0.54L434.46-0.54Q432.19 1.28 428.22 1.28L428.22 1.28L428.22 1.28Q425.92 1.28 422.34 0.77L422.34 0.77L422.34 0.77Q415.30-0.32 413.28-0.32L413.28-0.32L413.28-0.32Q411.26-0.32 410.43-0.22L410.43-0.22L410.43-0.22Q409.60-0.13 408.26 0L408.26 0L416.00-42.24L430.02-42.24L423.62-7.04L423.62-7.04Q424.45-6.91 425.22-6.91L425.22-6.91L426.82-6.91L426.82-6.91Q432.19-6.91 435.52-9.86ZM446.14-31.17L446.14-31.17L446.14-31.17Q443.97-32.83 443.97-36.38L443.97-36.38L443.97-36.38Q443.97-39.94 446.30-41.79L446.30-41.79L446.30-41.79Q448.64-43.65 452.67-43.65L452.67-43.65L452.67-43.65Q455.23-43.65 461.31-42.75L461.31-42.75L465.66-42.11L465.66-42.11Q467.84-41.86 470.11-41.86L470.11-41.86L470.11-41.86Q472.38-41.86 473.92-42.82L473.92-42.82L473.92-42.82Q476.22-40.77 476.22-37.82L476.22-37.82L476.22-37.82Q476.22-34.88 473.60-32.77L473.60-32.77L473.60-32.77Q470.91-30.53 467.46-30.53L467.46-30.53L467.46-30.53Q465.79-30.53 463.10-30.98L463.10-30.98L463.10-30.98Q459.97-21.12 459.97-14.27L459.97-14.27L459.97-14.27Q459.97-7.42 463.42-3.84L463.42-3.84L463.42-3.84Q461.82-0.96 459.46 0.16L459.46 0.16L459.46 0.16Q457.09 1.28 453.54 1.28L453.54 1.28L453.54 1.28Q449.98 1.28 447.78-0.67L447.78-0.67L447.78-0.67Q445.57-2.62 445.57-6.66L445.57-6.66L445.57-6.66Q445.57-11.33 448.13-19.01L448.13-19.01L448.13-19.01Q450.69-26.62 454.53-32.45L454.53-32.45L454.53-32.45Q452.67-32.64 450.75-32.64L450.75-32.64L450.75-32.64Q446.78-32.64 446.14-31.17ZM487.42 0L473.47 0L481.60-42.24L495.68-42.24L487.42 0ZM502.53 0L495.17 0L506.75-42.24L520.13-42.24L523.07-18.11L534.98-42.24L546.18-42.24L547.33-10.62L547.33-10.62Q547.58-4.35 550.66-2.43L550.66-2.43L550.66-2.43Q549.95-1.15 547.90 0.06L547.90 0.06L547.90 0.06Q545.86 1.28 543.14 1.28L543.14 1.28L543.14 1.28Q540.42 1.28 538.82 0.51L538.82 0.51L538.82 0.51Q537.22-0.26 536.32-1.54L536.32-1.54L536.32-1.54Q534.72-3.84 534.72-8.26L534.72-8.26L534.72-28.03L522.11 0L514.18 0L509.70-28.74L502.53 0ZM581.50 1.28L581.50 1.28L581.50 1.28Q573.31 1.28 572.54-10.37L572.54-10.37L561.54-10.37L561.54-10.37Q560.26-7.42 559.36-4.86L559.36-4.86L557.70 0L548.74 0L568.90-42.24L582.66-42.24L585.34-11.14L585.34-11.14Q585.98-4.42 588.54-2.43L588.54-2.43L588.54-2.43Q586.69 1.28 581.50 1.28ZM567.04-23.17L563.52-15.04L572.35-15.04L571.58-31.49L571.58-33.22L567.04-23.17ZM597.38-31.17L597.38-31.17L597.38-31.17Q595.20-32.83 595.20-36.38L595.20-36.38L595.20-36.38Q595.20-39.94 597.54-41.79L597.54-41.79L597.54-41.79Q599.87-43.65 603.90-43.65L603.90-43.65L603.90-43.65Q606.46-43.65 612.54-42.75L612.54-42.75L616.90-42.11L616.90-42.11Q619.07-41.86 621.34-41.86L621.34-41.86L621.34-41.86Q623.62-41.86 625.15-42.82L625.15-42.82L625.15-42.82Q627.46-40.77 627.46-37.82L627.46-37.82L627.46-37.82Q627.46-34.88 624.83-32.77L624.83-32.77L624.83-32.77Q622.14-30.53 618.69-30.53L618.69-30.53L618.69-30.53Q617.02-30.53 614.34-30.98L614.34-30.98L614.34-30.98Q611.20-21.12 611.20-14.27L611.20-14.27L611.20-14.27Q611.20-7.42 614.66-3.84L614.66-3.84L614.66-3.84Q613.06-0.96 610.69 0.16L610.69 0.16L610.69 0.16Q608.32 1.28 604.77 1.28L604.77 1.28L604.77 1.28Q601.22 1.28 599.01-0.67L599.01-0.67L599.01-0.67Q596.80-2.62 596.80-6.66L596.80-6.66L596.80-6.66Q596.80-11.33 599.36-19.01L599.36-19.01L599.36-19.01Q601.92-26.62 605.76-32.45L605.76-32.45L605.76-32.45Q603.90-32.64 601.98-32.64L601.98-32.64L601.98-32.64Q598.02-32.64 597.38-31.17ZM652.74-9.86L652.74-9.86L652.74-9.86Q653.95-8.32 653.95-5.82L653.95-5.82L653.95-5.82Q653.95-2.37 651.39-0.54L651.39-0.54L651.39-0.54Q648.83 1.28 644.80 1.28L644.80 1.28L644.80 1.28Q642.50 1.28 638.98 0.77L638.98 0.77L638.98 0.77Q632.06-0.32 629.95-0.32L629.95-0.32L629.95-0.32Q627.84-0.32 627.01-0.22L627.01-0.22L627.01-0.22Q626.18-0.13 624.83 0L624.83 0L632.70-42.24L660.29-42.24L660.29-42.24Q660.29-38.34 658.40-36.29L658.40-36.29L658.40-36.29Q656.51-34.24 652.80-34.24L652.80-34.24L652.80-34.24Q649.09-34.24 645.31-35.97L645.31-35.97L643.33-24.77L654.72-24.77L654.72-24.77Q654.72-21.38 653.06-19.49L653.06-19.49L653.06-19.49Q651.39-17.60 648.61-17.60L648.61-17.60L648.61-17.60Q645.82-17.60 644.10-18.24L644.10-18.24L644.10-18.24Q642.37-18.88 642.18-19.07L642.18-19.07L639.87-6.98L639.87-6.98Q641.41-6.78 644.29-6.78L644.29-6.78L644.29-6.78Q649.22-6.78 652.74-9.86Z" fill="#ccc"></path></g></g><style>text {
  font-size: 64px;
  font-family: Arial Black;
  dominant-baseline: central;
  text-anchor: middle;
}</style></svg>